<svg width="1280" height="320" viewBox="0 0 1280 320" fill="none" xmlns="http://www.w3.org/2000/svg">
  <rect width="1280" height="320" rx="24" fill="#F4EFE6"/>
  <rect x="32" y="32" width="1216" height="256" rx="20" fill="#FFFDF8"/>
  <path d="M0 260C180 220 290 320 470 280C640 242 706 156 860 156C1019 156 1095 230 1280 196V320H0V260Z" fill="#E8D8C3"/>
  <path d="M0 280C165 250 278 336 470 304C642 276 734 198 888 198C1028 198 1136 260 1280 236V320H0V280Z" fill="#D2B999"/>
  <circle cx="184" cy="112" r="56" fill="#0F766E"/>
  <path d="M184 74V150M146 112H222" stroke="#FFFDF8" stroke-width="18" stroke-linecap="round"/>
  <rect x="286" y="82" width="392" height="22" rx="11" fill="#1F2937"/>
  <rect x="286" y="118" width="312" height="14" rx="7" fill="#6B7280"/>
  <rect x="286" y="146" width="270" height="14" rx="7" fill="#6B7280"/>
  <rect x="286" y="210" width="144" height="40" rx="20" fill="#B45309"/>
  <text x="358" y="236" text-anchor="middle" font-family="Segoe UI, Arial, sans-serif" font-size="18" font-weight="700" fill="#FFFDF8">Codex Skill</text>
  <rect x="444" y="210" width="202" height="40" rx="20" fill="#1F2937"/>
  <text x="545" y="236" text-anchor="middle" font-family="Segoe UI, Arial, sans-serif" font-size="18" font-weight="700" fill="#FFFDF8">Maintainable Code</text>
  <text x="286" y="98" font-family="Georgia, Times New Roman, serif" font-size="44" font-weight="700" fill="#1F2937">Maintainable Code Craft</text>
  <text x="286" y="186" font-family="Segoe UI, Arial, sans-serif" font-size="24" font-weight="400" fill="#374151">Readable code. Focused changes. Calm engineering taste.</text>
  <rect x="1014" y="64" width="180" height="180" rx="24" fill="#1F2937"/>
  <rect x="1044" y="94" width="120" height="18" rx="9" fill="#FFFDF8"/>
  <rect x="1044" y="126" width="88" height="18" rx="9" fill="#C4B5A5"/>
  <rect x="1044" y="168" width="64" height="64" rx="14" fill="#0F766E"/>
  <path d="M1076 201L1092 217L1130 179" stroke="#FFFDF8" stroke-width="10" stroke-linecap="round" stroke-linejoin="round"/>
</svg>
